<mxfile host="Electron" agent="Mozilla/5.0 (Windows NT 10.0; Win64; x64) AppleWebKit/537.36 (KHTML, like Gecko) draw.io/28.0.6 Chrome/138.0.7204.100 Electron/37.2.3 Safari/537.36" version="28.0.6">
  <diagram name="Seite-1" id="PZJF9tLOmod4B-7iQ6T1">
    <mxGraphModel dx="1181" dy="686" grid="1" gridSize="10" guides="1" tooltips="1" connect="1" arrows="1" fold="1" page="1" pageScale="1" pageWidth="827" pageHeight="1169" math="0" shadow="0">
      <root>
        <mxCell id="0" />
        <mxCell id="1" parent="0" />
        <mxCell id="egmmhmlS6TxW06DzhaRE-1" value="" style="ellipse;html=1;shape=startState;fillColor=#000000;strokeColor=#ff0000;" vertex="1" parent="1">
          <mxGeometry x="395" y="90" width="30" height="30" as="geometry" />
        </mxCell>
        <mxCell id="egmmhmlS6TxW06DzhaRE-2" value="" style="edgeStyle=orthogonalEdgeStyle;html=1;verticalAlign=bottom;endArrow=open;endSize=8;strokeColor=#ff0000;rounded=0;entryX=0.5;entryY=0;entryDx=0;entryDy=0;" edge="1" source="egmmhmlS6TxW06DzhaRE-1" parent="1" target="egmmhmlS6TxW06DzhaRE-3">
          <mxGeometry relative="1" as="geometry">
            <mxPoint x="399" y="180" as="targetPoint" />
          </mxGeometry>
        </mxCell>
        <mxCell id="egmmhmlS6TxW06DzhaRE-3" value="Waiting For Start Condition" style="rounded=1;whiteSpace=wrap;html=1;arcSize=40;fontColor=#000000;fillColor=#ffffc0;strokeColor=#ff0000;" vertex="1" parent="1">
          <mxGeometry x="350" y="190" width="120" height="40" as="geometry" />
        </mxCell>
        <mxCell id="egmmhmlS6TxW06DzhaRE-4" value="" style="edgeStyle=orthogonalEdgeStyle;html=1;verticalAlign=bottom;endArrow=open;endSize=8;strokeColor=#ff0000;rounded=0;entryX=0.5;entryY=0;entryDx=0;entryDy=0;" edge="1" source="egmmhmlS6TxW06DzhaRE-3" parent="1" target="egmmhmlS6TxW06DzhaRE-6">
          <mxGeometry relative="1" as="geometry">
            <mxPoint x="410" y="340" as="targetPoint" />
          </mxGeometry>
        </mxCell>
        <mxCell id="egmmhmlS6TxW06DzhaRE-5" value="StartCondition" style="edgeLabel;html=1;align=center;verticalAlign=middle;resizable=0;points=[];" vertex="1" connectable="0" parent="egmmhmlS6TxW06DzhaRE-4">
          <mxGeometry x="-0.1516" y="-1" relative="1" as="geometry">
            <mxPoint as="offset" />
          </mxGeometry>
        </mxCell>
        <mxCell id="egmmhmlS6TxW06DzhaRE-24" style="edgeStyle=orthogonalEdgeStyle;rounded=0;orthogonalLoop=1;jettySize=auto;html=1;exitX=0.75;exitY=1;exitDx=0;exitDy=0;entryX=0.75;entryY=0;entryDx=0;entryDy=0;strokeColor=#ff0000;align=center;verticalAlign=bottom;fontFamily=Helvetica;fontSize=11;fontColor=default;labelBackgroundColor=default;endArrow=open;endSize=8;" edge="1" parent="1" source="egmmhmlS6TxW06DzhaRE-6" target="egmmhmlS6TxW06DzhaRE-13">
          <mxGeometry relative="1" as="geometry" />
        </mxCell>
        <mxCell id="egmmhmlS6TxW06DzhaRE-25" value="Read" style="edgeLabel;html=1;align=center;verticalAlign=bottom;resizable=0;points=[];rounded=0;strokeColor=#ff0000;fontFamily=Helvetica;fontSize=11;fontColor=default;labelBackgroundColor=default;" vertex="1" connectable="0" parent="egmmhmlS6TxW06DzhaRE-24">
          <mxGeometry x="-0.7681" y="1" relative="1" as="geometry">
            <mxPoint y="3" as="offset" />
          </mxGeometry>
        </mxCell>
        <mxCell id="egmmhmlS6TxW06DzhaRE-31" style="edgeStyle=orthogonalEdgeStyle;rounded=0;orthogonalLoop=1;jettySize=auto;html=1;exitX=0;exitY=0.5;exitDx=0;exitDy=0;entryX=0;entryY=0.75;entryDx=0;entryDy=0;strokeColor=#ff0000;align=center;verticalAlign=bottom;fontFamily=Helvetica;fontSize=11;fontColor=default;labelBackgroundColor=default;endArrow=open;endSize=8;" edge="1" parent="1" source="egmmhmlS6TxW06DzhaRE-6" target="egmmhmlS6TxW06DzhaRE-3">
          <mxGeometry relative="1" as="geometry">
            <Array as="points">
              <mxPoint x="320" y="360" />
              <mxPoint x="320" y="220" />
            </Array>
          </mxGeometry>
        </mxCell>
        <mxCell id="egmmhmlS6TxW06DzhaRE-32" value="UnexpectedDeviceAddress" style="edgeLabel;html=1;align=center;verticalAlign=bottom;resizable=0;points=[];rounded=0;strokeColor=#ff0000;fontFamily=Helvetica;fontSize=11;fontColor=default;labelBackgroundColor=default;" vertex="1" connectable="0" parent="egmmhmlS6TxW06DzhaRE-31">
          <mxGeometry x="-0.2858" relative="1" as="geometry">
            <mxPoint x="-30" y="14" as="offset" />
          </mxGeometry>
        </mxCell>
        <mxCell id="egmmhmlS6TxW06DzhaRE-6" value="Waiting For Device Address" style="rounded=1;whiteSpace=wrap;html=1;arcSize=40;fontColor=#000000;fillColor=#ffffc0;strokeColor=#ff0000;" vertex="1" parent="1">
          <mxGeometry x="350" y="340" width="120" height="40" as="geometry" />
        </mxCell>
        <mxCell id="egmmhmlS6TxW06DzhaRE-7" value="" style="edgeStyle=orthogonalEdgeStyle;html=1;verticalAlign=bottom;endArrow=open;endSize=8;strokeColor=#ff0000;rounded=0;entryX=0.5;entryY=0;entryDx=0;entryDy=0;exitX=0.25;exitY=1;exitDx=0;exitDy=0;" edge="1" source="egmmhmlS6TxW06DzhaRE-6" parent="1" target="egmmhmlS6TxW06DzhaRE-8">
          <mxGeometry relative="1" as="geometry">
            <mxPoint x="410" y="500" as="targetPoint" />
          </mxGeometry>
        </mxCell>
        <mxCell id="egmmhmlS6TxW06DzhaRE-14" value="Write" style="edgeLabel;html=1;align=center;verticalAlign=middle;resizable=0;points=[];" vertex="1" connectable="0" parent="egmmhmlS6TxW06DzhaRE-7">
          <mxGeometry x="0.4399" relative="1" as="geometry">
            <mxPoint x="89" y="-25" as="offset" />
          </mxGeometry>
        </mxCell>
        <mxCell id="egmmhmlS6TxW06DzhaRE-8" value="Write:&lt;br&gt;Processing Data Address" style="rounded=1;whiteSpace=wrap;html=1;arcSize=40;fontColor=#000000;fillColor=#ffffc0;strokeColor=#ff0000;" vertex="1" parent="1">
          <mxGeometry x="190" y="470" width="160" height="40" as="geometry" />
        </mxCell>
        <mxCell id="egmmhmlS6TxW06DzhaRE-9" value="" style="edgeStyle=orthogonalEdgeStyle;html=1;verticalAlign=bottom;endArrow=open;endSize=8;strokeColor=#ff0000;rounded=0;entryX=0.25;entryY=0;entryDx=0;entryDy=0;exitX=0.5;exitY=1;exitDx=0;exitDy=0;" edge="1" source="egmmhmlS6TxW06DzhaRE-8" parent="1" target="egmmhmlS6TxW06DzhaRE-13">
          <mxGeometry relative="1" as="geometry">
            <mxPoint x="240" y="620" as="targetPoint" />
          </mxGeometry>
        </mxCell>
        <mxCell id="egmmhmlS6TxW06DzhaRE-30" value="AllAddressBytes Received" style="edgeLabel;html=1;align=center;verticalAlign=middle;resizable=0;points=[];" vertex="1" connectable="0" parent="egmmhmlS6TxW06DzhaRE-9">
          <mxGeometry x="-0.2258" relative="1" as="geometry">
            <mxPoint y="-20" as="offset" />
          </mxGeometry>
        </mxCell>
        <mxCell id="egmmhmlS6TxW06DzhaRE-16" style="edgeStyle=orthogonalEdgeStyle;rounded=0;orthogonalLoop=1;jettySize=auto;html=1;exitX=0.25;exitY=1;exitDx=0;exitDy=0;entryX=0;entryY=0.5;entryDx=0;entryDy=0;strokeColor=#ff0000;align=center;verticalAlign=bottom;fontFamily=Helvetica;fontSize=11;fontColor=default;labelBackgroundColor=default;endArrow=open;endSize=8;" edge="1" parent="1" source="egmmhmlS6TxW06DzhaRE-13" target="egmmhmlS6TxW06DzhaRE-3">
          <mxGeometry relative="1" as="geometry">
            <mxPoint x="339.97" y="650" as="sourcePoint" />
            <mxPoint x="329.97" y="210" as="targetPoint" />
            <Array as="points">
              <mxPoint x="360" y="700" />
              <mxPoint x="150" y="700" />
              <mxPoint x="150" y="210" />
            </Array>
          </mxGeometry>
        </mxCell>
        <mxCell id="egmmhmlS6TxW06DzhaRE-17" value="StopCondition" style="edgeLabel;html=1;align=center;verticalAlign=bottom;resizable=0;points=[];rounded=0;strokeColor=#ff0000;fontFamily=Helvetica;fontSize=11;fontColor=default;labelBackgroundColor=default;" vertex="1" connectable="0" parent="egmmhmlS6TxW06DzhaRE-16">
          <mxGeometry x="-0.5222" relative="1" as="geometry">
            <mxPoint x="174" y="-10" as="offset" />
          </mxGeometry>
        </mxCell>
        <mxCell id="egmmhmlS6TxW06DzhaRE-18" style="edgeStyle=orthogonalEdgeStyle;rounded=0;orthogonalLoop=1;jettySize=auto;html=1;exitX=0.75;exitY=1;exitDx=0;exitDy=0;entryX=1;entryY=0.5;entryDx=0;entryDy=0;strokeColor=#ff0000;align=center;verticalAlign=bottom;fontFamily=Helvetica;fontSize=11;fontColor=default;labelBackgroundColor=default;endArrow=open;endSize=8;" edge="1" parent="1" source="egmmhmlS6TxW06DzhaRE-13" target="egmmhmlS6TxW06DzhaRE-6">
          <mxGeometry relative="1" as="geometry">
            <Array as="points">
              <mxPoint x="440" y="700" />
              <mxPoint x="580" y="700" />
              <mxPoint x="580" y="360" />
            </Array>
          </mxGeometry>
        </mxCell>
        <mxCell id="egmmhmlS6TxW06DzhaRE-19" value="StartCondition" style="edgeLabel;html=1;align=center;verticalAlign=bottom;resizable=0;points=[];rounded=0;strokeColor=#ff0000;fontFamily=Helvetica;fontSize=11;fontColor=default;labelBackgroundColor=default;" vertex="1" connectable="0" parent="egmmhmlS6TxW06DzhaRE-18">
          <mxGeometry x="-0.1416" y="-1" relative="1" as="geometry">
            <mxPoint x="-111" y="75" as="offset" />
          </mxGeometry>
        </mxCell>
        <mxCell id="egmmhmlS6TxW06DzhaRE-13" value="Read/Write:&lt;br&gt;Processing Data" style="rounded=1;whiteSpace=wrap;html=1;arcSize=40;fontColor=#000000;fillColor=#ffffc0;strokeColor=#ff0000;" vertex="1" parent="1">
          <mxGeometry x="320" y="610" width="160" height="40" as="geometry" />
        </mxCell>
      </root>
    </mxGraphModel>
  </diagram>
</mxfile>
